<?xml version="1.0" encoding="UTF-8" standalone="no"?>
<!DOCTYPE svg PUBLIC "-//W3C//DTD SVG 1.1//EN"
 "http://www.w3.org/Graphics/SVG/1.1/DTD/svg11.dtd">
<!-- Generated by graphviz version 2.36.0 (20140111.2315)
 -->
<!-- Title: G Pages: 1 -->
<svg width="458pt" height="1168pt"
 viewBox="0.00 0.00 458.00 1168.00" xmlns="http://www.w3.org/2000/svg" xmlns:xlink="http://www.w3.org/1999/xlink">
<g id="graph0" class="graph" transform="scale(1 1) rotate(0) translate(4 1164)">
<title>G</title>
<polygon fill="white" stroke="none" points="-4,4 -4,-1164 454,-1164 454,4 -4,4"/>
<g id="clust1" class="cluster"><title>cluster_Global</title>
<path fill="none" stroke="gray" d="M158,-8C158,-8 430,-8 430,-8 436,-8 442,-14 442,-20 442,-20 442,-1140 442,-1140 442,-1146 436,-1152 430,-1152 430,-1152 158,-1152 158,-1152 152,-1152 146,-1146 146,-1140 146,-1140 146,-20 146,-20 146,-14 152,-8 158,-8"/>
<text text-anchor="middle" x="294" y="-1139.2" font-family="Times,serif" font-size="11.00" fill="gray">Global</text>
</g>
<g id="clust2" class="cluster"><title>cluster_\OpenBooking</title>
<path fill="none" stroke="gray" d="M166,-16C166,-16 422,-16 422,-16 428,-16 434,-22 434,-28 434,-28 434,-1113 434,-1113 434,-1119 428,-1125 422,-1125 422,-1125 166,-1125 166,-1125 160,-1125 154,-1119 154,-1113 154,-1113 154,-28 154,-28 154,-22 160,-16 166,-16"/>
<text text-anchor="middle" x="294" y="-1112.2" font-family="Times,serif" font-size="11.00" fill="gray">OpenBooking</text>
</g>
<g id="clust3" class="cluster"><title>cluster_\OpenBooking\_Exceptions</title>
<path fill="none" stroke="gray" d="M174,-595C174,-595 414,-595 414,-595 420,-595 426,-601 426,-607 426,-607 426,-1086 426,-1086 426,-1092 420,-1098 414,-1098 414,-1098 174,-1098 174,-1098 168,-1098 162,-1092 162,-1086 162,-1086 162,-607 162,-607 162,-601 168,-595 174,-595"/>
<text text-anchor="middle" x="294" y="-1085.2" font-family="Times,serif" font-size="11.00" fill="gray">_Exceptions</text>
</g>
<g id="clust4" class="cluster"><title>cluster_\OpenBooking\_Class</title>
<path fill="none" stroke="gray" d="M222,-24C222,-24 366,-24 366,-24 372,-24 378,-30 378,-36 378,-36 378,-575 378,-575 378,-581 372,-587 366,-587 366,-587 222,-587 222,-587 216,-587 210,-581 210,-575 210,-575 210,-36 210,-36 210,-30 216,-24 222,-24"/>
<text text-anchor="middle" x="294" y="-574.2" font-family="Times,serif" font-size="11.00" fill="gray">_Class</text>
</g>
<g id="clust5" class="cluster"><title>cluster_\OpenBooking\_Class\Metier</title>
<path fill="none" stroke="gray" d="M247,-273C247,-273 341,-273 341,-273 347,-273 353,-279 353,-285 353,-285 353,-548 353,-548 353,-554 347,-560 341,-560 341,-560 247,-560 247,-560 241,-560 235,-554 235,-548 235,-548 235,-285 235,-285 235,-279 241,-273 247,-273"/>
<text text-anchor="middle" x="294" y="-547.2" font-family="Times,serif" font-size="11.00" fill="gray">Metier</text>
</g>
<g id="clust6" class="cluster"><title>cluster_\OpenBooking\_Class\Model</title>
<path fill="none" stroke="gray" d="M230,-32C230,-32 358,-32 358,-32 364,-32 370,-38 370,-44 370,-44 370,-253 370,-253 370,-259 364,-265 358,-265 358,-265 230,-265 230,-265 224,-265 218,-259 218,-253 218,-253 218,-44 218,-44 218,-38 224,-32 230,-32"/>
<text text-anchor="middle" x="294" y="-252.2" font-family="Times,serif" font-size="11.00" fill="gray">Model</text>
</g>
<!-- \\OpenBooking\\_Exceptions\\UnknownErrorException -->
<g id="node1" class="node"><title>\\OpenBooking\\_Exceptions\\UnknownErrorException</title>
<polygon fill="none" stroke="black" points="371.123,-1071 216.877,-1071 216.877,-1035 371.123,-1035 371.123,-1071"/>
<text text-anchor="middle" x="294" y="-1049.7" font-family="Courier,monospace" font-size="11.00">UnknownErrorException</text>
</g>
<!-- \\Exception -->
<g id="node19" class="node"><title>\\Exception</title>
<ellipse fill="none" stroke="black" cx="49" cy="-837" rx="48.3341" ry="18"/>
<text text-anchor="middle" x="49" y="-832.8" font-family="Times,serif" font-size="14.00" fill="gray">\Exception</text>
</g>
<!-- \\OpenBooking\\_Exceptions\\UnknownErrorException&#45;&gt;\\Exception -->
<g id="edge1" class="edge"><title>\\OpenBooking\\_Exceptions\\UnknownErrorException&#45;&gt;\\Exception</title>
<path fill="none" stroke="black" d="M216.663,-1052.12C192.159,-1048.58 166.17,-1041.06 146,-1026 92.1676,-985.816 66.2964,-906.85 55.8807,-864.836"/>
<polygon fill="none" stroke="black" points="59.2619,-863.924 53.5581,-854.996 52.4492,-865.533 59.2619,-863.924"/>
</g>
<!-- \\OpenBooking\\_Exceptions\\SQLErrorException -->
<g id="node2" class="node"><title>\\OpenBooking\\_Exceptions\\SQLErrorException</title>
<polygon fill="none" stroke="black" points="358.218,-1017 229.782,-1017 229.782,-981 358.218,-981 358.218,-1017"/>
<text text-anchor="middle" x="294" y="-995.7" font-family="Courier,monospace" font-size="11.00">SQLErrorException</text>
</g>
<!-- \\OpenBooking\\_Exceptions\\SQLErrorException&#45;&gt;\\Exception -->
<g id="edge2" class="edge"><title>\\OpenBooking\\_Exceptions\\SQLErrorException&#45;&gt;\\Exception</title>
<path fill="none" stroke="black" d="M229.789,-997.883C202.27,-994.859 170.73,-987.752 146,-972 105.07,-945.929 76.3887,-895.575 61.5915,-864.276"/>
<polygon fill="none" stroke="black" points="64.618,-862.478 57.2771,-854.838 58.2517,-865.388 64.618,-862.478"/>
</g>
<!-- \\OpenBooking\\_Exceptions\\LoginException -->
<g id="node3" class="node"><title>\\OpenBooking\\_Exceptions\\LoginException</title>
<polygon fill="none" stroke="black" points="348.416,-963 239.584,-963 239.584,-927 348.416,-927 348.416,-963"/>
<text text-anchor="middle" x="294" y="-941.7" font-family="Courier,monospace" font-size="11.00">LoginException</text>
</g>
<!-- \\OpenBooking\\_Exceptions\\LoginException&#45;&gt;\\Exception -->
<g id="edge3" class="edge"><title>\\OpenBooking\\_Exceptions\\LoginException&#45;&gt;\\Exception</title>
<path fill="none" stroke="black" d="M239.609,-941.867C210.777,-938.56 175.211,-931.797 146,-918 117.36,-904.473 90.3147,-880.22 72.2748,-861.767"/>
<polygon fill="none" stroke="black" points="74.5511,-859.083 65.1164,-854.262 69.4858,-863.914 74.5511,-859.083"/>
</g>
<!-- \\OpenBooking\\_Exceptions\\EventIscancelledException -->
<g id="node4" class="node"><title>\\OpenBooking\\_Exceptions\\EventIscancelledException</title>
<polygon fill="none" stroke="black" points="384.527,-909 203.473,-909 203.473,-873 384.527,-873 384.527,-909"/>
<text text-anchor="middle" x="294" y="-887.7" font-family="Courier,monospace" font-size="11.00">EventIscancelledException</text>
</g>
<!-- \\OpenBooking\\_Exceptions\\EventIscancelledException&#45;&gt;\\Exception -->
<g id="edge4" class="edge"><title>\\OpenBooking\\_Exceptions\\EventIscancelledException&#45;&gt;\\Exception</title>
<path fill="none" stroke="black" d="M203.33,-875.895C184.334,-872.314 164.452,-868.28 146,-864 129.951,-860.278 112.57,-855.592 97.0632,-851.174"/>
<polygon fill="none" stroke="black" points="97.7553,-847.731 87.177,-848.322 95.8149,-854.456 97.7553,-847.731"/>
</g>
<!-- \\OpenBooking\\_Exceptions\\UnknownEmailTemplateException -->
<g id="node5" class="node"><title>\\OpenBooking\\_Exceptions\\UnknownEmailTemplateException</title>
<polygon fill="none" stroke="black" points="397.932,-855 190.068,-855 190.068,-819 397.932,-819 397.932,-855"/>
<text text-anchor="middle" x="294" y="-833.7" font-family="Courier,monospace" font-size="11.00">UnknownEmailTemplateException</text>
</g>
<!-- \\OpenBooking\\_Exceptions\\UnknownEmailTemplateException&#45;&gt;\\Exception -->
<g id="edge5" class="edge"><title>\\OpenBooking\\_Exceptions\\UnknownEmailTemplateException&#45;&gt;\\Exception</title>
<path fill="none" stroke="black" d="M189.946,-837C161.876,-837 132.461,-837 107.884,-837"/>
<polygon fill="none" stroke="black" points="107.665,-833.5 97.6647,-837 107.665,-840.5 107.665,-833.5"/>
</g>
<!-- \\OpenBooking\\_Exceptions\\NullDatasException -->
<g id="node6" class="node"><title>\\OpenBooking\\_Exceptions\\NullDatasException</title>
<polygon fill="none" stroke="black" points="361.319,-801 226.681,-801 226.681,-765 361.319,-765 361.319,-801"/>
<text text-anchor="middle" x="294" y="-779.7" font-family="Courier,monospace" font-size="11.00">NullDatasException</text>
</g>
<!-- \\OpenBooking\\_Exceptions\\NullDatasException&#45;&gt;\\Exception -->
<g id="edge6" class="edge"><title>\\OpenBooking\\_Exceptions\\NullDatasException&#45;&gt;\\Exception</title>
<path fill="none" stroke="black" d="M226.506,-793.869C201.197,-798.357 172.161,-803.932 146,-810 129.951,-813.722 112.57,-818.408 97.0632,-822.826"/>
<polygon fill="none" stroke="black" points="95.8149,-819.544 87.177,-825.678 97.7553,-826.269 95.8149,-819.544"/>
</g>
<!-- \\OpenBooking\\_Exceptions\\AccessDeniedException -->
<g id="node7" class="node"><title>\\OpenBooking\\_Exceptions\\AccessDeniedException</title>
<polygon fill="none" stroke="black" points="371.123,-747 216.877,-747 216.877,-711 371.123,-711 371.123,-747"/>
<text text-anchor="middle" x="294" y="-725.7" font-family="Courier,monospace" font-size="11.00">AccessDeniedException</text>
</g>
<!-- \\OpenBooking\\_Exceptions\\AccessDeniedException&#45;&gt;\\Exception -->
<g id="edge7" class="edge"><title>\\OpenBooking\\_Exceptions\\AccessDeniedException&#45;&gt;\\Exception</title>
<path fill="none" stroke="black" d="M216.643,-735.365C193.187,-739.313 167.82,-745.694 146,-756 117.36,-769.527 90.3147,-793.78 72.2748,-812.233"/>
<polygon fill="none" stroke="black" points="69.4858,-810.086 65.1164,-819.738 74.5511,-814.917 69.4858,-810.086"/>
</g>
<!-- \\OpenBooking\\_Exceptions\\ValidDatasException -->
<g id="node8" class="node"><title>\\OpenBooking\\_Exceptions\\ValidDatasException</title>
<polygon fill="none" stroke="black" points="364.921,-693 223.079,-693 223.079,-657 364.921,-657 364.921,-693"/>
<text text-anchor="middle" x="294" y="-671.7" font-family="Courier,monospace" font-size="11.00">ValidDatasException</text>
</g>
<!-- \\OpenBooking\\_Exceptions\\ValidDatasException&#45;&gt;\\Exception -->
<g id="edge8" class="edge"><title>\\OpenBooking\\_Exceptions\\ValidDatasException&#45;&gt;\\Exception</title>
<path fill="none" stroke="black" d="M223.142,-676.92C197.289,-680.328 168.761,-687.502 146,-702 105.07,-728.071 76.3887,-778.425 61.5915,-809.724"/>
<polygon fill="none" stroke="black" points="58.2517,-808.612 57.2771,-819.162 64.618,-811.522 58.2517,-808.612"/>
</g>
<!-- \\OpenBooking\\_Exceptions\\DataAlreadyExistInDatabaseException -->
<g id="node9" class="node"><title>\\OpenBooking\\_Exceptions\\DataAlreadyExistInDatabaseException</title>
<polygon fill="none" stroke="black" points="417.538,-639 170.462,-639 170.462,-603 417.538,-603 417.538,-639"/>
<text text-anchor="middle" x="294" y="-617.7" font-family="Courier,monospace" font-size="11.00">DataAlreadyExistInDatabaseException</text>
</g>
<!-- \\OpenBooking\\_Exceptions\\DataAlreadyExistInDatabaseException&#45;&gt;\\Exception -->
<g id="edge9" class="edge"><title>\\OpenBooking\\_Exceptions\\DataAlreadyExistInDatabaseException&#45;&gt;\\Exception</title>
<path fill="none" stroke="black" d="M170.125,-634.323C161.543,-637.989 153.382,-642.49 146,-648 92.1676,-688.184 66.2964,-767.15 55.8807,-809.164"/>
<polygon fill="none" stroke="black" points="52.4492,-808.467 53.5581,-819.004 59.2619,-810.076 52.4492,-808.467"/>
</g>
<!-- \\OpenBooking\\_Class\\Metier\\Participation -->
<g id="node10" class="node"><title>\\OpenBooking\\_Class\\Metier\\Participation</title>
<polygon fill="none" stroke="black" points="344.814,-533 243.186,-533 243.186,-497 344.814,-497 344.814,-533"/>
<text text-anchor="middle" x="294" y="-511.7" font-family="Courier,monospace" font-size="11.00">Participation</text>
</g>
<!-- \\OpenBooking\\_Class\\Metier\\Event -->
<g id="node11" class="node"><title>\\OpenBooking\\_Class\\Metier\\Event</title>
<polygon fill="none" stroke="black" points="321,-479 267,-479 267,-443 321,-443 321,-479"/>
<text text-anchor="middle" x="294" y="-457.7" font-family="Courier,monospace" font-size="11.00">Event</text>
</g>
<!-- \\OpenBooking\\_Class\\Metier\\Participant -->
<g id="node12" class="node"><title>\\OpenBooking\\_Class\\Metier\\Participant</title>
<polygon fill="none" stroke="black" points="338.113,-425 249.887,-425 249.887,-389 338.113,-389 338.113,-425"/>
<text text-anchor="middle" x="294" y="-403.7" font-family="Courier,monospace" font-size="11.00">Participant</text>
</g>
<!-- \\OpenBooking\\_Class\\Metier\\Email -->
<g id="node13" class="node"><title>\\OpenBooking\\_Class\\Metier\\Email</title>
<polygon fill="none" stroke="black" points="321,-371 267,-371 267,-335 321,-335 321,-371"/>
<text text-anchor="middle" x="294" y="-349.7" font-family="Courier,monospace" font-size="11.00">Email</text>
</g>
<!-- \\OpenBooking\\_Class\\Metier\\EmailType -->
<g id="node14" class="node"><title>\\OpenBooking\\_Class\\Metier\\EmailType</title>
<polygon fill="none" stroke="black" points="331.911,-317 256.089,-317 256.089,-281 331.911,-281 331.911,-317"/>
<text text-anchor="middle" x="294" y="-295.7" font-family="Courier,monospace" font-size="11.00">EmailType</text>
</g>
<!-- \\OpenBooking\\_Class\\Model\\ModelEvent -->
<g id="node15" class="node"><title>\\OpenBooking\\_Class\\Model\\ModelEvent</title>
<polygon fill="none" stroke="black" points="335.011,-238 252.989,-238 252.989,-202 335.011,-202 335.011,-238"/>
<text text-anchor="middle" x="294" y="-216.7" font-family="Courier,monospace" font-size="11.00">ModelEvent</text>
</g>
<!-- \\OpenBooking\\_Class\\Model\\ModelParticipation -->
<g id="node16" class="node"><title>\\OpenBooking\\_Class\\Model\\ModelParticipation</title>
<polygon fill="none" stroke="black" points="361.319,-184 226.681,-184 226.681,-148 361.319,-148 361.319,-184"/>
<text text-anchor="middle" x="294" y="-162.7" font-family="Courier,monospace" font-size="11.00">ModelParticipation</text>
</g>
<!-- \\OpenBooking\\_Class\\Model\\ModelEmailType -->
<g id="node17" class="node"><title>\\OpenBooking\\_Class\\Model\\ModelEmailType</title>
<polygon fill="none" stroke="black" points="348.416,-130 239.584,-130 239.584,-94 348.416,-94 348.416,-130"/>
<text text-anchor="middle" x="294" y="-108.7" font-family="Courier,monospace" font-size="11.00">ModelEmailType</text>
</g>
<!-- \\OpenBooking\\_Class\\Model\\ModelParticipant -->
<g id="node18" class="node"><title>\\OpenBooking\\_Class\\Model\\ModelParticipant</title>
<polygon fill="none" stroke="black" points="354.618,-76 233.382,-76 233.382,-40 354.618,-40 354.618,-76"/>
<text text-anchor="middle" x="294" y="-54.7" font-family="Courier,monospace" font-size="11.00">ModelParticipant</text>
</g>
</g>
</svg>
