<?xml version="1.0" encoding="UTF-8" standalone="no"?>
<!DOCTYPE svg PUBLIC "-//W3C//DTD SVG 1.1//EN"
 "http://www.w3.org/Graphics/SVG/1.1/DTD/svg11.dtd">
<!-- Generated by graphviz version 2.36.0 (20140111.2315)
 -->
<!-- Title: G Pages: 1 -->
<svg width="412pt" height="1033pt"
 viewBox="0.00 0.00 412.00 1033.00" xmlns="http://www.w3.org/2000/svg" xmlns:xlink="http://www.w3.org/1999/xlink">
<g id="graph0" class="graph" transform="scale(1 1) rotate(0) translate(4 1029)">
<title>G</title>
<polygon fill="white" stroke="none" points="-4,4 -4,-1029 408,-1029 408,4 -4,4"/>
<g id="clust1" class="cluster"><title>cluster_Global</title>
<path fill="none" stroke="gray" d="M158,-8C158,-8 384,-8 384,-8 390,-8 396,-14 396,-20 396,-20 396,-1005 396,-1005 396,-1011 390,-1017 384,-1017 384,-1017 158,-1017 158,-1017 152,-1017 146,-1011 146,-1005 146,-1005 146,-20 146,-20 146,-14 152,-8 158,-8"/>
<text text-anchor="middle" x="271" y="-1004.2" font-family="Times,serif" font-size="11.00" fill="gray">Global</text>
</g>
<g id="clust2" class="cluster"><title>cluster_\OpenBooking</title>
<path fill="none" stroke="gray" d="M166,-16C166,-16 376,-16 376,-16 382,-16 388,-22 388,-28 388,-28 388,-978 388,-978 388,-984 382,-990 376,-990 376,-990 166,-990 166,-990 160,-990 154,-984 154,-978 154,-978 154,-28 154,-28 154,-22 160,-16 166,-16"/>
<text text-anchor="middle" x="271" y="-977.2" font-family="Times,serif" font-size="11.00" fill="gray">OpenBooking</text>
</g>
<g id="clust3" class="cluster"><title>cluster_\OpenBooking\_Class</title>
<path fill="none" stroke="gray" d="M199,-427C199,-427 343,-427 343,-427 349,-427 355,-433 355,-439 355,-439 355,-951 355,-951 355,-957 349,-963 343,-963 343,-963 199,-963 199,-963 193,-963 187,-957 187,-951 187,-951 187,-439 187,-439 187,-433 193,-427 199,-427"/>
<text text-anchor="middle" x="271" y="-950.2" font-family="Times,serif" font-size="11.00" fill="gray">_Class</text>
</g>
<g id="clust4" class="cluster"><title>cluster_\OpenBooking\_Class\Metier</title>
<path fill="none" stroke="gray" d="M224,-622C224,-622 318,-622 318,-622 324,-622 330,-628 330,-634 330,-634 330,-924 330,-924 330,-930 324,-936 318,-936 318,-936 224,-936 224,-936 218,-936 212,-930 212,-924 212,-924 212,-634 212,-634 212,-628 218,-622 224,-622"/>
<text text-anchor="middle" x="271" y="-923.2" font-family="Times,serif" font-size="11.00" fill="gray">Metier</text>
</g>
<g id="clust5" class="cluster"><title>cluster_\OpenBooking\_Class\Metier\EmailType</title>
<path fill="none" stroke="gray" d="M237,-838C237,-838 305,-838 305,-838 311,-838 317,-844 317,-850 317,-850 317,-897 317,-897 317,-903 311,-909 305,-909 305,-909 237,-909 237,-909 231,-909 225,-903 225,-897 225,-897 225,-850 225,-850 225,-844 231,-838 237,-838"/>
<text text-anchor="middle" x="271" y="-896.2" font-family="Times,serif" font-size="11.00" fill="gray">EmailType</text>
</g>
<g id="clust6" class="cluster"><title>cluster_\OpenBooking\_Class\Model</title>
<path fill="none" stroke="gray" d="M207,-435C207,-435 335,-435 335,-435 341,-435 347,-441 347,-447 347,-447 347,-602 347,-602 347,-608 341,-614 335,-614 335,-614 207,-614 207,-614 201,-614 195,-608 195,-602 195,-602 195,-447 195,-447 195,-441 201,-435 207,-435"/>
<text text-anchor="middle" x="271" y="-601.2" font-family="Times,serif" font-size="11.00" fill="gray">Model</text>
</g>
<g id="clust7" class="cluster"><title>cluster_\OpenBooking\_Exceptions</title>
<path fill="none" stroke="gray" d="M174,-24C174,-24 368,-24 368,-24 374,-24 380,-30 380,-36 380,-36 380,-407 380,-407 380,-413 374,-419 368,-419 368,-419 174,-419 174,-419 168,-419 162,-413 162,-407 162,-407 162,-36 162,-36 162,-30 168,-24 174,-24"/>
<text text-anchor="middle" x="271" y="-406.2" font-family="Times,serif" font-size="11.00" fill="gray">_Exceptions</text>
</g>
<!-- \\OpenBooking\\_Class\\Metier\\EmailType\\EmailType -->
<g id="node1" class="node"><title>\\OpenBooking\\_Class\\Metier\\EmailType\\EmailType</title>
<polygon fill="none" stroke="black" points="308.911,-882 233.089,-882 233.089,-846 308.911,-846 308.911,-882"/>
<text text-anchor="middle" x="271" y="-860.7" font-family="Courier,monospace" font-size="11.00">EmailType</text>
</g>
<!-- \\OpenBooking\\_Class\\Metier\\Email -->
<g id="node2" class="node"><title>\\OpenBooking\\_Class\\Metier\\Email</title>
<polygon fill="none" stroke="black" points="298,-828 244,-828 244,-792 298,-792 298,-828"/>
<text text-anchor="middle" x="271" y="-806.7" font-family="Courier,monospace" font-size="11.00">Email</text>
</g>
<!-- \\OpenBooking\\_Class\\Metier\\Event -->
<g id="node3" class="node"><title>\\OpenBooking\\_Class\\Metier\\Event</title>
<polygon fill="none" stroke="black" points="298,-774 244,-774 244,-738 298,-738 298,-774"/>
<text text-anchor="middle" x="271" y="-752.7" font-family="Courier,monospace" font-size="11.00">Event</text>
</g>
<!-- \\OpenBooking\\_Class\\Metier\\Participant -->
<g id="node4" class="node"><title>\\OpenBooking\\_Class\\Metier\\Participant</title>
<polygon fill="none" stroke="black" points="315.113,-720 226.887,-720 226.887,-684 315.113,-684 315.113,-720"/>
<text text-anchor="middle" x="271" y="-698.7" font-family="Courier,monospace" font-size="11.00">Participant</text>
</g>
<!-- \\OpenBooking\\_Class\\Metier\\Participation -->
<g id="node5" class="node"><title>\\OpenBooking\\_Class\\Metier\\Participation</title>
<polygon fill="none" stroke="black" points="321.814,-666 220.186,-666 220.186,-630 321.814,-630 321.814,-666"/>
<text text-anchor="middle" x="271" y="-644.7" font-family="Courier,monospace" font-size="11.00">Participation</text>
</g>
<!-- \\OpenBooking\\_Class\\Model\\ModelEvent -->
<g id="node6" class="node"><title>\\OpenBooking\\_Class\\Model\\ModelEvent</title>
<polygon fill="none" stroke="black" points="312.011,-587 229.989,-587 229.989,-551 312.011,-551 312.011,-587"/>
<text text-anchor="middle" x="271" y="-565.7" font-family="Courier,monospace" font-size="11.00">ModelEvent</text>
</g>
<!-- \\OpenBooking\\_Class\\Model\\ModelParticipant -->
<g id="node7" class="node"><title>\\OpenBooking\\_Class\\Model\\ModelParticipant</title>
<polygon fill="none" stroke="black" points="331.618,-533 210.382,-533 210.382,-497 331.618,-497 331.618,-533"/>
<text text-anchor="middle" x="271" y="-511.7" font-family="Courier,monospace" font-size="11.00">ModelParticipant</text>
</g>
<!-- \\OpenBooking\\_Class\\Model\\ModelParticipation -->
<g id="node8" class="node"><title>\\OpenBooking\\_Class\\Model\\ModelParticipation</title>
<polygon fill="none" stroke="black" points="338.319,-479 203.681,-479 203.681,-443 338.319,-443 338.319,-479"/>
<text text-anchor="middle" x="271" y="-457.7" font-family="Courier,monospace" font-size="11.00">ModelParticipation</text>
</g>
<!-- \\OpenBooking\\_Exceptions\\AccessDeniedException -->
<g id="node9" class="node"><title>\\OpenBooking\\_Exceptions\\AccessDeniedException</title>
<polygon fill="none" stroke="black" points="348.123,-392 193.877,-392 193.877,-356 348.123,-356 348.123,-392"/>
<text text-anchor="middle" x="271" y="-370.7" font-family="Courier,monospace" font-size="11.00">AccessDeniedException</text>
</g>
<!-- \\Exception -->
<g id="node16" class="node"><title>\\Exception</title>
<ellipse fill="none" stroke="black" cx="49" cy="-212" rx="48.3341" ry="18"/>
<text text-anchor="middle" x="49" y="-207.8" font-family="Times,serif" font-size="14.00" fill="gray">\Exception</text>
</g>
<!-- \\OpenBooking\\_Exceptions\\AccessDeniedException&#45;&gt;\\Exception -->
<g id="edge1" class="edge"><title>\\OpenBooking\\_Exceptions\\AccessDeniedException&#45;&gt;\\Exception</title>
<path fill="none" stroke="black" d="M193.671,-366.568C177.017,-362.514 160.158,-356.347 146,-347 105.719,-320.406 76.992,-270.656 61.9831,-239.544"/>
<polygon fill="none" stroke="black" points="64.9984,-237.729 57.5948,-230.15 58.6563,-240.692 64.9984,-237.729"/>
</g>
<!-- \\OpenBooking\\_Exceptions\\LoginException -->
<g id="node10" class="node"><title>\\OpenBooking\\_Exceptions\\LoginException</title>
<polygon fill="none" stroke="black" points="325.416,-338 216.584,-338 216.584,-302 325.416,-302 325.416,-338"/>
<text text-anchor="middle" x="271" y="-316.7" font-family="Courier,monospace" font-size="11.00">LoginException</text>
</g>
<!-- \\OpenBooking\\_Exceptions\\LoginException&#45;&gt;\\Exception -->
<g id="edge2" class="edge"><title>\\OpenBooking\\_Exceptions\\LoginException&#45;&gt;\\Exception</title>
<path fill="none" stroke="black" d="M216.53,-314.173C193.929,-310.257 167.841,-303.756 146,-293 117.585,-279.006 90.5097,-254.816 72.4013,-236.505"/>
<polygon fill="none" stroke="black" points="74.6775,-233.824 65.2118,-229.065 69.6435,-238.688 74.6775,-233.824"/>
</g>
<!-- \\OpenBooking\\_Exceptions\\NullDatasException -->
<g id="node11" class="node"><title>\\OpenBooking\\_Exceptions\\NullDatasException</title>
<polygon fill="none" stroke="black" points="338.319,-284 203.681,-284 203.681,-248 338.319,-248 338.319,-284"/>
<text text-anchor="middle" x="271" y="-262.7" font-family="Courier,monospace" font-size="11.00">NullDatasException</text>
</g>
<!-- \\OpenBooking\\_Exceptions\\NullDatasException&#45;&gt;\\Exception -->
<g id="edge3" class="edge"><title>\\OpenBooking\\_Exceptions\\NullDatasException&#45;&gt;\\Exception</title>
<path fill="none" stroke="black" d="M203.546,-252.297C184.878,-248.239 164.599,-243.636 146,-239 130.152,-235.05 112.948,-230.345 97.5395,-225.977"/>
<polygon fill="none" stroke="black" points="98.2822,-222.549 87.7054,-223.167 96.3589,-229.28 98.2822,-222.549"/>
</g>
<!-- \\OpenBooking\\_Exceptions\\SQLErrorException -->
<g id="node12" class="node"><title>\\OpenBooking\\_Exceptions\\SQLErrorException</title>
<polygon fill="none" stroke="black" points="335.218,-230 206.782,-230 206.782,-194 335.218,-194 335.218,-230"/>
<text text-anchor="middle" x="271" y="-208.7" font-family="Courier,monospace" font-size="11.00">SQLErrorException</text>
</g>
<!-- \\OpenBooking\\_Exceptions\\SQLErrorException&#45;&gt;\\Exception -->
<g id="edge4" class="edge"><title>\\OpenBooking\\_Exceptions\\SQLErrorException&#45;&gt;\\Exception</title>
<path fill="none" stroke="black" d="M206.662,-212C175.413,-212 137.998,-212 107.569,-212"/>
<polygon fill="none" stroke="black" points="107.537,-208.5 97.5367,-212 107.537,-215.5 107.537,-208.5"/>
</g>
<!-- \\OpenBooking\\_Exceptions\\UnknowEmailTemplateException -->
<g id="node13" class="node"><title>\\OpenBooking\\_Exceptions\\UnknowEmailTemplateException</title>
<polygon fill="none" stroke="black" points="371.33,-176 170.67,-176 170.67,-140 371.33,-140 371.33,-176"/>
<text text-anchor="middle" x="271" y="-154.7" font-family="Courier,monospace" font-size="11.00">UnknowEmailTemplateException</text>
</g>
<!-- \\OpenBooking\\_Exceptions\\UnknowEmailTemplateException&#45;&gt;\\Exception -->
<g id="edge5" class="edge"><title>\\OpenBooking\\_Exceptions\\UnknowEmailTemplateException&#45;&gt;\\Exception</title>
<path fill="none" stroke="black" d="M183.794,-176.074C171.092,-178.939 158.186,-181.963 146,-185 130.152,-188.95 112.948,-193.655 97.5395,-198.023"/>
<polygon fill="none" stroke="black" points="96.3589,-194.72 87.7054,-200.833 98.2822,-201.451 96.3589,-194.72"/>
</g>
<!-- \\OpenBooking\\_Exceptions\\UnknowErrorException -->
<g id="node14" class="node"><title>\\OpenBooking\\_Exceptions\\UnknowErrorException</title>
<polygon fill="none" stroke="black" points="345.021,-122 196.979,-122 196.979,-86 345.021,-86 345.021,-122"/>
<text text-anchor="middle" x="271" y="-100.7" font-family="Courier,monospace" font-size="11.00">UnknowErrorException</text>
</g>
<!-- \\OpenBooking\\_Exceptions\\UnknowErrorException&#45;&gt;\\Exception -->
<g id="edge6" class="edge"><title>\\OpenBooking\\_Exceptions\\UnknowErrorException&#45;&gt;\\Exception</title>
<path fill="none" stroke="black" d="M196.856,-113.77C179.626,-117.725 161.713,-123.261 146,-131 117.585,-144.994 90.5097,-169.184 72.4013,-187.495"/>
<polygon fill="none" stroke="black" points="69.6435,-185.312 65.2118,-194.935 74.6775,-190.176 69.6435,-185.312"/>
</g>
<!-- \\OpenBooking\\_Exceptions\\ValidDatasException -->
<g id="node15" class="node"><title>\\OpenBooking\\_Exceptions\\ValidDatasException</title>
<polygon fill="none" stroke="black" points="341.921,-68 200.079,-68 200.079,-32 341.921,-32 341.921,-68"/>
<text text-anchor="middle" x="271" y="-46.7" font-family="Courier,monospace" font-size="11.00">ValidDatasException</text>
</g>
<!-- \\OpenBooking\\_Exceptions\\ValidDatasException&#45;&gt;\\Exception -->
<g id="edge7" class="edge"><title>\\OpenBooking\\_Exceptions\\ValidDatasException&#45;&gt;\\Exception</title>
<path fill="none" stroke="black" d="M200.143,-55.9569C181.441,-59.9379 161.996,-66.439 146,-77 105.719,-103.594 76.992,-153.344 61.9831,-184.456"/>
<polygon fill="none" stroke="black" points="58.6563,-183.308 57.5948,-193.85 64.9984,-186.271 58.6563,-183.308"/>
</g>
</g>
</svg>
