<?xml version="1.0" encoding="UTF-8" standalone="no"?>
<!DOCTYPE svg PUBLIC "-//W3C//DTD SVG 1.1//EN"
 "http://www.w3.org/Graphics/SVG/1.1/DTD/svg11.dtd">
<!-- Generated by graphviz version 2.36.0 (20140111.2315)
 -->
<!-- Title: G Pages: 1 -->
<svg width="458pt" height="1168pt"
 viewBox="0.00 0.00 458.00 1168.00" xmlns="http://www.w3.org/2000/svg" xmlns:xlink="http://www.w3.org/1999/xlink">
<g id="graph0" class="graph" transform="scale(1 1) rotate(0) translate(4 1164)">
<title>G</title>
<polygon fill="white" stroke="none" points="-4,4 -4,-1164 454,-1164 454,4 -4,4"/>
<g id="clust1" class="cluster"><title>cluster_Global</title>
<path fill="none" stroke="gray" d="M158,-8C158,-8 430,-8 430,-8 436,-8 442,-14 442,-20 442,-20 442,-1140 442,-1140 442,-1146 436,-1152 430,-1152 430,-1152 158,-1152 158,-1152 152,-1152 146,-1146 146,-1140 146,-1140 146,-20 146,-20 146,-14 152,-8 158,-8"/>
<text text-anchor="middle" x="294" y="-1139.2" font-family="Times,serif" font-size="11.00" fill="gray">Global</text>
</g>
<g id="clust2" class="cluster"><title>cluster_\OpenBooking</title>
<path fill="none" stroke="gray" d="M166,-16C166,-16 422,-16 422,-16 428,-16 434,-22 434,-28 434,-28 434,-1113 434,-1113 434,-1119 428,-1125 422,-1125 422,-1125 166,-1125 166,-1125 160,-1125 154,-1119 154,-1113 154,-1113 154,-28 154,-28 154,-22 160,-16 166,-16"/>
<text text-anchor="middle" x="294" y="-1112.2" font-family="Times,serif" font-size="11.00" fill="gray">OpenBooking</text>
</g>
<g id="clust3" class="cluster"><title>cluster_\OpenBooking\_Class</title>
<path fill="none" stroke="gray" d="M222,-535C222,-535 366,-535 366,-535 372,-535 378,-541 378,-547 378,-547 378,-1086 378,-1086 378,-1092 372,-1098 366,-1098 366,-1098 222,-1098 222,-1098 216,-1098 210,-1092 210,-1086 210,-1086 210,-547 210,-547 210,-541 216,-535 222,-535"/>
<text text-anchor="middle" x="294" y="-1085.2" font-family="Times,serif" font-size="11.00" fill="gray">_Class</text>
</g>
<g id="clust4" class="cluster"><title>cluster_\OpenBooking\_Class\Metier</title>
<path fill="none" stroke="gray" d="M247,-784C247,-784 341,-784 341,-784 347,-784 353,-790 353,-796 353,-796 353,-1059 353,-1059 353,-1065 347,-1071 341,-1071 341,-1071 247,-1071 247,-1071 241,-1071 235,-1065 235,-1059 235,-1059 235,-796 235,-796 235,-790 241,-784 247,-784"/>
<text text-anchor="middle" x="294" y="-1058.2" font-family="Times,serif" font-size="11.00" fill="gray">Metier</text>
</g>
<g id="clust5" class="cluster"><title>cluster_\OpenBooking\_Class\Model</title>
<path fill="none" stroke="gray" d="M230,-543C230,-543 358,-543 358,-543 364,-543 370,-549 370,-555 370,-555 370,-764 370,-764 370,-770 364,-776 358,-776 358,-776 230,-776 230,-776 224,-776 218,-770 218,-764 218,-764 218,-555 218,-555 218,-549 224,-543 230,-543"/>
<text text-anchor="middle" x="294" y="-763.2" font-family="Times,serif" font-size="11.00" fill="gray">Model</text>
</g>
<g id="clust6" class="cluster"><title>cluster_\OpenBooking\_Exceptions</title>
<path fill="none" stroke="gray" d="M174,-24C174,-24 414,-24 414,-24 420,-24 426,-30 426,-36 426,-36 426,-515 426,-515 426,-521 420,-527 414,-527 414,-527 174,-527 174,-527 168,-527 162,-521 162,-515 162,-515 162,-36 162,-36 162,-30 168,-24 174,-24"/>
<text text-anchor="middle" x="294" y="-514.2" font-family="Times,serif" font-size="11.00" fill="gray">_Exceptions</text>
</g>
<!-- \\OpenBooking\\_Class\\Metier\\Email -->
<g id="node1" class="node"><title>\\OpenBooking\\_Class\\Metier\\Email</title>
<polygon fill="none" stroke="black" points="321,-1044 267,-1044 267,-1008 321,-1008 321,-1044"/>
<text text-anchor="middle" x="294" y="-1022.7" font-family="Courier,monospace" font-size="11.00">Email</text>
</g>
<!-- \\OpenBooking\\_Class\\Metier\\EmailType -->
<g id="node2" class="node"><title>\\OpenBooking\\_Class\\Metier\\EmailType</title>
<polygon fill="none" stroke="black" points="331.911,-990 256.089,-990 256.089,-954 331.911,-954 331.911,-990"/>
<text text-anchor="middle" x="294" y="-968.7" font-family="Courier,monospace" font-size="11.00">EmailType</text>
</g>
<!-- \\OpenBooking\\_Class\\Metier\\Event -->
<g id="node3" class="node"><title>\\OpenBooking\\_Class\\Metier\\Event</title>
<polygon fill="none" stroke="black" points="321,-936 267,-936 267,-900 321,-900 321,-936"/>
<text text-anchor="middle" x="294" y="-914.7" font-family="Courier,monospace" font-size="11.00">Event</text>
</g>
<!-- \\OpenBooking\\_Class\\Metier\\Participant -->
<g id="node4" class="node"><title>\\OpenBooking\\_Class\\Metier\\Participant</title>
<polygon fill="none" stroke="black" points="338.113,-882 249.887,-882 249.887,-846 338.113,-846 338.113,-882"/>
<text text-anchor="middle" x="294" y="-860.7" font-family="Courier,monospace" font-size="11.00">Participant</text>
</g>
<!-- \\OpenBooking\\_Class\\Metier\\Participation -->
<g id="node5" class="node"><title>\\OpenBooking\\_Class\\Metier\\Participation</title>
<polygon fill="none" stroke="black" points="344.814,-828 243.186,-828 243.186,-792 344.814,-792 344.814,-828"/>
<text text-anchor="middle" x="294" y="-806.7" font-family="Courier,monospace" font-size="11.00">Participation</text>
</g>
<!-- \\OpenBooking\\_Class\\Model\\ModelEmailType -->
<g id="node6" class="node"><title>\\OpenBooking\\_Class\\Model\\ModelEmailType</title>
<polygon fill="none" stroke="black" points="348.416,-749 239.584,-749 239.584,-713 348.416,-713 348.416,-749"/>
<text text-anchor="middle" x="294" y="-727.7" font-family="Courier,monospace" font-size="11.00">ModelEmailType</text>
</g>
<!-- \\OpenBooking\\_Class\\Model\\ModelEvent -->
<g id="node7" class="node"><title>\\OpenBooking\\_Class\\Model\\ModelEvent</title>
<polygon fill="none" stroke="black" points="335.011,-695 252.989,-695 252.989,-659 335.011,-659 335.011,-695"/>
<text text-anchor="middle" x="294" y="-673.7" font-family="Courier,monospace" font-size="11.00">ModelEvent</text>
</g>
<!-- \\OpenBooking\\_Class\\Model\\ModelParticipant -->
<g id="node8" class="node"><title>\\OpenBooking\\_Class\\Model\\ModelParticipant</title>
<polygon fill="none" stroke="black" points="354.618,-641 233.382,-641 233.382,-605 354.618,-605 354.618,-641"/>
<text text-anchor="middle" x="294" y="-619.7" font-family="Courier,monospace" font-size="11.00">ModelParticipant</text>
</g>
<!-- \\OpenBooking\\_Class\\Model\\ModelParticipation -->
<g id="node9" class="node"><title>\\OpenBooking\\_Class\\Model\\ModelParticipation</title>
<polygon fill="none" stroke="black" points="361.319,-587 226.681,-587 226.681,-551 361.319,-551 361.319,-587"/>
<text text-anchor="middle" x="294" y="-565.7" font-family="Courier,monospace" font-size="11.00">ModelParticipation</text>
</g>
<!-- \\OpenBooking\\_Exceptions\\AccessDeniedException -->
<g id="node10" class="node"><title>\\OpenBooking\\_Exceptions\\AccessDeniedException</title>
<polygon fill="none" stroke="black" points="371.123,-500 216.877,-500 216.877,-464 371.123,-464 371.123,-500"/>
<text text-anchor="middle" x="294" y="-478.7" font-family="Courier,monospace" font-size="11.00">AccessDeniedException</text>
</g>
<!-- \\Exception -->
<g id="node19" class="node"><title>\\Exception</title>
<ellipse fill="none" stroke="black" cx="49" cy="-266" rx="48.3341" ry="18"/>
<text text-anchor="middle" x="49" y="-261.8" font-family="Times,serif" font-size="14.00" fill="gray">\Exception</text>
</g>
<!-- \\OpenBooking\\_Exceptions\\AccessDeniedException&#45;&gt;\\Exception -->
<g id="edge1" class="edge"><title>\\OpenBooking\\_Exceptions\\AccessDeniedException&#45;&gt;\\Exception</title>
<path fill="none" stroke="black" d="M216.663,-481.115C192.159,-477.579 166.17,-470.056 146,-455 92.1676,-414.816 66.2964,-335.85 55.8807,-293.836"/>
<polygon fill="none" stroke="black" points="59.2619,-292.924 53.5581,-283.996 52.4492,-294.533 59.2619,-292.924"/>
</g>
<!-- \\OpenBooking\\_Exceptions\\DataAlreadyExistInDatabaseException -->
<g id="node11" class="node"><title>\\OpenBooking\\_Exceptions\\DataAlreadyExistInDatabaseException</title>
<polygon fill="none" stroke="black" points="417.538,-446 170.462,-446 170.462,-410 417.538,-410 417.538,-446"/>
<text text-anchor="middle" x="294" y="-424.7" font-family="Courier,monospace" font-size="11.00">DataAlreadyExistInDatabaseException</text>
</g>
<!-- \\OpenBooking\\_Exceptions\\DataAlreadyExistInDatabaseException&#45;&gt;\\Exception -->
<g id="edge2" class="edge"><title>\\OpenBooking\\_Exceptions\\DataAlreadyExistInDatabaseException&#45;&gt;\\Exception</title>
<path fill="none" stroke="black" d="M170.247,-413.14C161.736,-409.813 153.55,-405.809 146,-401 105.07,-374.929 76.3887,-324.575 61.5915,-293.276"/>
<polygon fill="none" stroke="black" points="64.618,-291.478 57.2771,-283.838 58.2517,-294.388 64.618,-291.478"/>
</g>
<!-- \\OpenBooking\\_Exceptions\\EventIscancelledException -->
<g id="node12" class="node"><title>\\OpenBooking\\_Exceptions\\EventIscancelledException</title>
<polygon fill="none" stroke="black" points="384.527,-392 203.473,-392 203.473,-356 384.527,-356 384.527,-392"/>
<text text-anchor="middle" x="294" y="-370.7" font-family="Courier,monospace" font-size="11.00">EventIscancelledException</text>
</g>
<!-- \\OpenBooking\\_Exceptions\\EventIscancelledException&#45;&gt;\\Exception -->
<g id="edge3" class="edge"><title>\\OpenBooking\\_Exceptions\\EventIscancelledException&#45;&gt;\\Exception</title>
<path fill="none" stroke="black" d="M203.235,-365.138C183.766,-361.147 163.714,-355.367 146,-347 117.36,-333.473 90.3147,-309.22 72.2748,-290.767"/>
<polygon fill="none" stroke="black" points="74.5511,-288.083 65.1164,-283.262 69.4858,-292.914 74.5511,-288.083"/>
</g>
<!-- \\OpenBooking\\_Exceptions\\LoginException -->
<g id="node13" class="node"><title>\\OpenBooking\\_Exceptions\\LoginException</title>
<polygon fill="none" stroke="black" points="348.416,-338 239.584,-338 239.584,-302 348.416,-302 348.416,-338"/>
<text text-anchor="middle" x="294" y="-316.7" font-family="Courier,monospace" font-size="11.00">LoginException</text>
</g>
<!-- \\OpenBooking\\_Exceptions\\LoginException&#45;&gt;\\Exception -->
<g id="edge4" class="edge"><title>\\OpenBooking\\_Exceptions\\LoginException&#45;&gt;\\Exception</title>
<path fill="none" stroke="black" d="M239.683,-311.43C211.669,-306.62 176.838,-300.152 146,-293 129.951,-289.278 112.57,-284.592 97.0632,-280.174"/>
<polygon fill="none" stroke="black" points="97.7553,-276.731 87.177,-277.322 95.8149,-283.456 97.7553,-276.731"/>
</g>
<!-- \\OpenBooking\\_Exceptions\\NullDatasException -->
<g id="node14" class="node"><title>\\OpenBooking\\_Exceptions\\NullDatasException</title>
<polygon fill="none" stroke="black" points="361.319,-284 226.681,-284 226.681,-248 361.319,-248 361.319,-284"/>
<text text-anchor="middle" x="294" y="-262.7" font-family="Courier,monospace" font-size="11.00">NullDatasException</text>
</g>
<!-- \\OpenBooking\\_Exceptions\\NullDatasException&#45;&gt;\\Exception -->
<g id="edge5" class="edge"><title>\\OpenBooking\\_Exceptions\\NullDatasException&#45;&gt;\\Exception</title>
<path fill="none" stroke="black" d="M226.599,-266C189.381,-266 143.411,-266 107.704,-266"/>
<polygon fill="none" stroke="black" points="107.448,-262.5 97.4478,-266 107.448,-269.5 107.448,-262.5"/>
</g>
<!-- \\OpenBooking\\_Exceptions\\SQLErrorException -->
<g id="node15" class="node"><title>\\OpenBooking\\_Exceptions\\SQLErrorException</title>
<polygon fill="none" stroke="black" points="358.218,-230 229.782,-230 229.782,-194 358.218,-194 358.218,-230"/>
<text text-anchor="middle" x="294" y="-208.7" font-family="Courier,monospace" font-size="11.00">SQLErrorException</text>
</g>
<!-- \\OpenBooking\\_Exceptions\\SQLErrorException&#45;&gt;\\Exception -->
<g id="edge6" class="edge"><title>\\OpenBooking\\_Exceptions\\SQLErrorException&#45;&gt;\\Exception</title>
<path fill="none" stroke="black" d="M229.786,-222.29C203.727,-226.874 173.299,-232.668 146,-239 129.951,-242.722 112.57,-247.408 97.0632,-251.826"/>
<polygon fill="none" stroke="black" points="95.8149,-248.544 87.177,-254.678 97.7553,-255.269 95.8149,-248.544"/>
</g>
<!-- \\OpenBooking\\_Exceptions\\UnknownEmailTemplateException -->
<g id="node16" class="node"><title>\\OpenBooking\\_Exceptions\\UnknownEmailTemplateException</title>
<polygon fill="none" stroke="black" points="397.932,-176 190.068,-176 190.068,-140 397.932,-140 397.932,-176"/>
<text text-anchor="middle" x="294" y="-154.7" font-family="Courier,monospace" font-size="11.00">UnknownEmailTemplateException</text>
</g>
<!-- \\OpenBooking\\_Exceptions\\UnknownEmailTemplateException&#45;&gt;\\Exception -->
<g id="edge7" class="edge"><title>\\OpenBooking\\_Exceptions\\UnknownEmailTemplateException&#45;&gt;\\Exception</title>
<path fill="none" stroke="black" d="M190.028,-169.839C174.854,-173.587 159.726,-178.517 146,-185 117.36,-198.527 90.3147,-222.78 72.2748,-241.233"/>
<polygon fill="none" stroke="black" points="69.4858,-239.086 65.1164,-248.738 74.5511,-243.917 69.4858,-239.086"/>
</g>
<!-- \\OpenBooking\\_Exceptions\\UnknownErrorException -->
<g id="node17" class="node"><title>\\OpenBooking\\_Exceptions\\UnknownErrorException</title>
<polygon fill="none" stroke="black" points="371.123,-122 216.877,-122 216.877,-86 371.123,-86 371.123,-122"/>
<text text-anchor="middle" x="294" y="-100.7" font-family="Courier,monospace" font-size="11.00">UnknownErrorException</text>
</g>
<!-- \\OpenBooking\\_Exceptions\\UnknownErrorException&#45;&gt;\\Exception -->
<g id="edge8" class="edge"><title>\\OpenBooking\\_Exceptions\\UnknownErrorException&#45;&gt;\\Exception</title>
<path fill="none" stroke="black" d="M216.754,-106.833C192.664,-110.55 166.9,-117.687 146,-131 105.07,-157.071 76.3887,-207.425 61.5915,-238.724"/>
<polygon fill="none" stroke="black" points="58.2517,-237.612 57.2771,-248.162 64.618,-240.522 58.2517,-237.612"/>
</g>
<!-- \\OpenBooking\\_Exceptions\\ValidDatasException -->
<g id="node18" class="node"><title>\\OpenBooking\\_Exceptions\\ValidDatasException</title>
<polygon fill="none" stroke="black" points="364.921,-68 223.079,-68 223.079,-32 364.921,-32 364.921,-68"/>
<text text-anchor="middle" x="294" y="-46.7" font-family="Courier,monospace" font-size="11.00">ValidDatasException</text>
</g>
<!-- \\OpenBooking\\_Exceptions\\ValidDatasException&#45;&gt;\\Exception -->
<g id="edge9" class="edge"><title>\\OpenBooking\\_Exceptions\\ValidDatasException&#45;&gt;\\Exception</title>
<path fill="none" stroke="black" d="M223.065,-50.0443C196.759,-53.1608 167.937,-60.6248 146,-77 92.1676,-117.184 66.2964,-196.15 55.8807,-238.164"/>
<polygon fill="none" stroke="black" points="52.4492,-237.467 53.5581,-248.004 59.2619,-239.076 52.4492,-237.467"/>
</g>
</g>
</svg>
